<?xml version="1.0" encoding="utf-8"?>
<!-- Generator: Adobe Illustrator 23.0.6, SVG Export Plug-In . SVG Version: 6.00 Build 0)  -->
<svg version="1.1" id="Layer_1" xmlns="http://www.w3.org/2000/svg" xmlns:xlink="http://www.w3.org/1999/xlink" x="0px" y="0px"
	 viewBox="0 0 595.28 841.89" style="enable-background:new 0 0 595.28 841.89;" xml:space="preserve">
<style type="text/css">
	.st0{fill:#52AE32;}
	.st1{fill:#FFFFFF;}
	.st2{fill:none;}
</style>
<g>
	<g>
		<path class="st0" d="M454.14,579.78c14-9.94,26.68-21.64,37.71-34.76l41.21,34.58c-13.99,16.64-30.07,31.48-47.83,44.09
			L454.14,579.78z"/>
	</g>
	<g>
		<path class="st0" d="M141.13,579.78c-14-9.94-26.68-21.64-37.71-34.76L62.22,579.6c13.99,16.64,30.07,31.48,47.83,44.09
			L141.13,579.78z"/>
	</g>
	<g>
		<path class="st0" d="M439.16,245.76c14,9.94,26.68,21.64,37.71,34.76l41.21-34.58c-13.99-16.64-30.07-31.48-47.83-44.09
			L439.16,245.76z"/>
	</g>
	<g>
		<path class="st0" d="M156.12,245.76c-14,9.94-26.68,21.64-37.71,34.76L77.2,245.94c13.99-16.64,30.07-31.48,47.83-44.09
			L156.12,245.76z"/>
	</g>
	<g>
		<g>
			<path d="M439.16,245.76l38.23-4.57c-7.37-15.25,6.17-22.96-7.15-39.33L439.16,245.76z"/>
		</g>
		<g>
			<path d="M156.12,245.76l-38.23-4.57c7.37-15.25-6.17-22.96,7.15-39.33L156.12,245.76z"/>
		</g>
		<g>
			<path d="M454.14,579.78l38.23,4.57c-7.37,15.25,6.17,22.96-7.15,39.33L454.14,579.78z"/>
		</g>
		<g>
			<path d="M141.13,579.78l-38.23,4.57c7.37,15.25-6.17,22.96,7.15,39.33L141.13,579.78z"/>
		</g>
	</g>
	<circle class="st0" cx="297.64" cy="420.95" r="190.67"/>
	<path class="st0" d="M155.92,279.22c36.31-36.31,86.44-58.8,141.72-58.8c55.29,0,105.41,22.49,141.72,58.8l38.04-38.04
		c-46.05-46.05-109.64-74.58-179.76-74.58c-70.12,0-133.7,28.52-179.76,74.58L155.92,279.22z"/>
	<path class="st0" d="M451.17,549.77c-36.81,43.8-91.97,71.69-153.53,71.69s-116.72-27.89-153.53-71.69l-41.21,34.58
		c46.69,55.56,116.66,90.92,194.74,90.92c78.08,0,148.04-35.37,194.73-90.93L451.17,549.77z"/>
	<g>
		<path class="st1" d="M181.25,246.15c-3.62,2.42-7.37,3.19-11.26,2.31c-3.88-0.88-7.17-3.33-9.85-7.35
			c-2.57-3.85-3.6-7.75-3.09-11.72s2.7-7.24,6.57-9.82c3.58-2.39,7.29-3.16,11.13-2.3c3.83,0.86,7.07,3.26,9.7,7.21
			c2.73,4.09,3.77,8.12,3.14,12.1S184.85,243.75,181.25,246.15z M177.31,240.33c1.33-0.89,1.9-2.11,1.71-3.66
			c-0.19-1.55-1.32-3.88-3.38-6.97c-2.99-4.48-5.68-5.91-8.08-4.31c-2.59,1.73-2.18,5.15,1.23,10.25
			C171.98,240.43,174.82,241.99,177.31,240.33z"/>
		<path class="st1" d="M220.77,224.53l-7.01,3.27l-13.46-8.81c-1.73-1.13-3.62-2.6-5.68-4.4c1.3,1.6,2.24,3.03,2.83,4.29l6.34,13.58
			l-6.99,3.26l-13.08-28.05l8.14-3.8l11.33,7.23c2.25,1.43,4.08,2.77,5.47,4c-1.56-2.19-2.92-4.54-4.09-7.05l-3.87-8.3l7.01-3.27
			L220.77,224.53z"/>
		<path class="st1" d="M244.33,193.02l5.78,22.81l-8.73,2.21l-5.78-22.81l-6.22,1.58l-1.82-7.19l21.16-5.37l1.82,7.19L244.33,193.02
			z"/>
		<path class="st1" d="M281.49,179.72l3.71,30.73l-9.43,1.14l-1.44-11.95l-7.2,0.87l1.44,11.95l-9.43,1.14l-3.71-30.73l9.43-1.14
			l1.36,11.3l7.2-0.87l-1.36-11.3L281.49,179.72z"/>
		<path class="st1" d="M314.09,203.37l-0.13,7.39l-23.28-0.42l0.56-30.94l23.28,0.42l-0.13,7.14l-13.96-0.25l-0.08,4.49l11.29,0.2
			l-0.12,6.87l-11.29-0.2l-0.09,5.06L314.09,203.37z"/>
		<path class="st1" d="M330.11,212.63l6.5-30.26l15.36,3.3c3.19,0.69,5.35,1.99,6.46,3.92c1.12,1.93,1.45,3.92,1.01,5.99
			c-0.32,1.51-1.04,2.78-2.15,3.82c-1.11,1.04-2.56,1.6-4.34,1.7c3.71,1.79,5.17,4.56,4.36,8.31c-0.48,2.25-1.6,4.1-3.37,5.57
			c-1.76,1.47-4.9,1.72-9.42,0.75L330.11,212.63z M340.11,207.72l4.52,0.97c1.12,0.24,2.01,0.14,2.65-0.3s1.04-1.01,1.19-1.7
			c0.15-0.69,0.03-1.39-0.35-2.08c-0.38-0.69-1.26-1.19-2.62-1.48l-4.21-0.91L340.11,207.72z M342.67,195.8l4.3,0.92
			c1.08,0.23,1.9,0.12,2.46-0.33c0.56-0.45,0.91-0.99,1.04-1.61c0.36-1.68-0.49-2.75-2.56-3.19l-4.15-0.89L342.67,195.8z"/>
		<path class="st1" d="M375.29,225.22l0.48-6.33l-7.78-2.88l-3.86,5.08l-7.23-2.68l19.7-25.71l9.42,3.48l-1.63,32.39L375.29,225.22z
			 M371.85,210.24l4.7,1.74l0.77-9.29L371.85,210.24z"/>
		<path class="st1" d="M409.73,233.5l-3.54,6.72L387,230.1l14.44-27.38l8.4,4.43l-10.89,20.66L409.73,233.5z"/>
		<path class="st1" d="M431.33,248.27l-4.32,6.25l-17.84-12.35l17.61-25.45l7.81,5.4l-13.29,19.21L431.33,248.27z"/>
	</g>
	<g>
		<path class="st1" d="M146.69,594.29l-5.72-5.31l-6.1,6.57l-5.24-4.87l16.28-17.54l12.68,11.77l-3.88,4.18l-7.44-6.91l-2.65,2.85
			l5.72,5.31L146.69,594.29z"/>
		<path class="st1" d="M153.83,611.94c-2.69-2.03-4.21-4.57-4.56-7.63s0.6-6.08,2.85-9.07c2.15-2.86,4.74-4.6,7.77-5.24
			c3.02-0.64,5.97,0.12,8.85,2.29c2.66,2.01,4.17,4.52,4.52,7.54c0.35,3.02-0.58,5.99-2.79,8.92c-2.29,3.03-4.97,4.83-8.03,5.38
			S156.5,613.95,153.83,611.94z M157.08,607.58c0.99,0.75,2.03,0.85,3.11,0.32c1.08-0.54,2.49-1.95,4.22-4.25
			c2.51-3.32,2.87-5.66,1.08-7c-1.92-1.45-4.31-0.28-7.17,3.51C155.65,603.71,155.23,606.18,157.08,607.58z"/>
		<path class="st1" d="M176.7,627.2c-2.9-1.71-4.7-4.06-5.4-7.06c-0.7-3-0.1-6.11,1.8-9.34c1.81-3.08,4.18-5.12,7.11-6.1
			c2.93-0.98,5.95-0.56,9.05,1.26c2.87,1.69,4.66,4.01,5.35,6.97c0.7,2.96,0.11,6.02-1.75,9.18c-1.92,3.27-4.38,5.36-7.36,6.27
			C182.51,629.29,179.58,628.9,176.7,627.2z M179.42,622.5c1.07,0.63,2.11,0.61,3.13-0.04c1.02-0.66,2.25-2.22,3.71-4.7
			c2.11-3.59,2.2-5.95,0.28-7.08c-2.08-1.22-4.32,0.21-6.72,4.31C177.56,618.82,177.43,621.33,179.42,622.5z"/>
		<path class="st1" d="M208.24,622.6l-7.65,16.51l-6.32-2.93l7.65-16.51l-4.5-2.09l2.41-5.2l15.32,7.1l-2.41,5.2L208.24,622.6z"/>
		<path class="st1" d="M209.15,642.9l7.98-22.56l11.46,4.05c2.38,0.84,3.9,2.06,4.57,3.64c0.67,1.59,0.73,3.15,0.18,4.69
			c-0.4,1.12-1.07,2.03-2.03,2.71s-2.12,0.98-3.5,0.87c2.67,1.74,3.51,4.01,2.52,6.8c-0.59,1.68-1.64,2.99-3.13,3.94
			c-1.5,0.95-3.93,0.83-7.3-0.36L209.15,642.9z M217.31,640.13l3.37,1.19c0.84,0.3,1.52,0.31,2.06,0.03
			c0.54-0.27,0.9-0.67,1.08-1.19c0.18-0.52,0.16-1.06-0.06-1.63c-0.23-0.57-0.85-1.03-1.86-1.39l-3.14-1.11L217.31,640.13z
			 M220.45,631.24l3.21,1.13c0.8,0.28,1.44,0.28,1.92-0.01c0.48-0.29,0.79-0.67,0.96-1.13c0.44-1.26-0.1-2.16-1.65-2.7l-3.09-1.09
			L220.45,631.24z"/>
		<path class="st1" d="M246.29,654.14l-0.23-4.9l-6.24-1.47l-2.48,4.26l-5.8-1.37l12.69-21.59l7.56,1.79l1.8,25.02L246.29,654.14z
			 M242.24,642.96l3.77,0.89l-0.29-7.2L242.24,642.96z"/>
		<path class="st1" d="M275.55,652.92l-0.78,5.82l-16.63-2.23l3.18-23.72l7.28,0.98l-2.4,17.9L275.55,652.92z"/>
		<path class="st1" d="M296.61,653.94l-0.25,5.87l-16.76-0.72l1.03-23.91l7.34,0.32l-0.78,18.04L296.61,653.94z"/>
		<path class="st1" d="M324.96,658.13l-1.8-4.56l-6.38,0.62l-0.97,4.83l-5.94,0.58l5.02-24.54l7.73-0.76l9.8,23.09L324.96,658.13z
			 M317.51,648.87l3.85-0.38l-2.6-6.72L317.51,648.87z"/>
		<path class="st1" d="M347.41,645.13l6.66-0.94c0.27,2.94-0.34,5.36-1.85,7.26c-1.5,1.9-3.58,3.12-6.23,3.66
			c-3.18,0.65-5.97,0.11-8.36-1.6c-2.39-1.71-3.96-4.42-4.71-8.13c-0.75-3.68-0.42-6.83,0.98-9.47c1.4-2.63,3.76-4.29,7.08-4.96
			c3.1-0.63,5.67-0.25,7.68,1.13c2.02,1.38,3.42,3.47,4.21,6.27l-6.65,1.72c-0.32-1.57-0.85-2.64-1.59-3.22
			c-0.74-0.58-1.52-0.78-2.33-0.62c-2.27,0.46-2.94,2.97-2.02,7.53c0.52,2.55,1.17,4.23,1.94,5.03c0.78,0.8,1.7,1.09,2.76,0.87
			C346.9,649.28,347.71,647.77,347.41,645.13z"/>
		<path class="st1" d="M373.02,647.53l-2.71-4.09l-6.12,1.92l0.04,4.93l-5.69,1.79l-0.14-25.05l7.41-2.33l14.34,20.58L373.02,647.53
			z M363.82,640l3.69-1.16l-3.93-6.04L363.82,640z"/>
		<path class="st1" d="M384.64,643.52l-9.66-21.9l8.47-3.74c3.68-1.62,6.91-1.75,9.71-0.37c2.79,1.38,4.82,3.5,6.08,6.36
			c1.44,3.27,1.64,6.37,0.58,9.28c-1.06,2.91-3.16,5.06-6.29,6.44L384.64,643.52z M389.14,635.52l1.75-0.77
			c1.11-0.49,1.81-1.44,2.1-2.86c0.29-1.42,0.02-3.06-0.8-4.92c-0.7-1.59-1.65-2.82-2.84-3.67s-2.42-1-3.71-0.43l-1.75,0.77
			L389.14,635.52z"/>
		<path class="st1" d="M421.84,618.33l2.85,4.96l-15.61,8.97l-11.92-20.75l15.61-8.97l2.75,4.79l-9.37,5.38l1.73,3.01l7.57-4.35
			l2.65,4.61l-7.57,4.35l1.95,3.39L421.84,618.33z"/>
		<path class="st1" d="M436.09,585.64l14.28,19.2l-5.47,4.07l-10.21-13.73l6.66,16.37l-3.74,2.78l-13.9-10.99l10.21,13.73
			l-4.42,3.29l-14.28-19.2l7.7-5.73l10.37,8.13l-4.93-12.18L436.09,585.64z"/>
		<path class="st1" d="M453.46,569.17l4.04,15.17l6.97,7.36l-5.18,4.91l-6.97-7.36l-15.33-4.49l5.84-5.52l8.47,2.85l-2.5-8.49
			L453.46,569.17z"/>
	</g>
	<path class="st2" d="M184.61,516.94c3.75-24.33,15.29-47.2,33.34-64.72c8.21-7.97,17.76-14.84,28.54-20.23
		c8.11-4.06,16.47-7.05,24.92-9.05c2.55-0.6,5.11-1.08,7.68-1.51c-5.06-22.32-31.47-19.38-31.47-19.38s-72.3,69.13-80.29,158.07
		c7.96,7.46,16.56,14.24,25.72,20.25C183.95,559.79,181.4,537.83,184.61,516.94z"/>
	<path class="st2" d="M347.65,402.05c0,0-26.41-2.93-31.47,19.38c34.92,5.77,66.67,27.6,83.71,61.67
		c15.84,31.68,15.58,67.19,2.35,97.26c9.15-6.01,17.74-12.79,25.7-20.24C419.96,471.18,347.65,402.05,347.65,402.05z"/>
	<path d="M399.9,483.11c-17.04-34.07-48.8-55.9-83.71-61.67c-1.78,7.86-0.92,18.84,4.68,34.19l26.2-15.21
		c14.95,7.85,28.18,19.35,38.21,34.13l-17.87,40.39l-30.16,6.48l-31.46-28.19l3.15-30.69l5.44-3.16
		c-5.51-5.94-11.71-13.45-16.73-21.69c-2.75,4.52-5.86,8.82-9.02,12.76l12.61,11.3l-3.15,30.69l-36.53,21.21l-28.21-12.48
		l-9.25-43.02c6.08-5.89,12.96-11.15,20.61-15.6c7.65-4.44,15.63-7.81,23.77-10.16l10.1,9.05c1.73-8.27,1.71-14.82,0.53-20
		c-2.56,0.42-5.13,0.9-7.68,1.51c-8.46,2-16.82,5-24.92,9.05c-10.78,5.39-20.33,12.26-28.54,20.23
		c-18.05,17.52-29.59,40.39-33.34,64.72c-3.22,20.89-0.66,42.85,8.44,63.43c18.94,12.45,40.22,21.61,63.05,26.68l-3.63-16.9
		l20.59-22.97l42.02,4.32l15.49,26.68l-5.04,11.39c15.31-2.24,30.03-6.31,43.93-11.97l-32.19-3.31l-15.49-26.68l17.09-38.63
		l30.16-6.48l33.01,29.58c-2.24,12.88-6.85,25.3-13.64,36.58c4.74-2.57,9.36-5.35,13.85-8.3
		C415.48,550.3,415.74,514.78,399.9,483.11z M246.7,585l-43.94-4.52c-7.86-16.04-11.29-33.23-10.69-50.11l38.12-22.13l28.21,12.48
		l8.88,41.3L246.7,585z"/>
	<path class="st1" d="M230.2,508.24l-38.12,22.13c-0.6,16.88,2.83,34.07,10.69,50.11L246.7,585l20.59-22.97l-8.88-41.3L230.2,508.24
		z"/>
	<path class="st1" d="M325.52,609.58l5.04-11.39l-15.49-26.68l-42.02-4.32l-20.59,22.97l3.63,16.9c13.37,2.97,27.27,4.55,41.54,4.55
		C307.11,611.61,316.42,610.91,325.52,609.58z"/>
	<path class="st1" d="M267,472.82c6.15-12.54,9.78-22.87,11.56-31.38l-10.1-9.05c-8.13,2.35-16.11,5.72-23.77,10.16
		c-7.65,4.44-14.54,9.7-20.61,15.6l9.25,43.02l28.21,12.48l36.53-21.21l3.15-30.69l-12.61-11.3C278.07,463.63,267,472.82,267,472.82
		z"/>
	<path class="st1" d="M402.03,552.09l-33.01-29.58l-30.16,6.48l-17.09,38.63l15.49,26.68l32.19,3.31c6.5-2.64,12.82-5.62,18.94-8.94
		C395.18,577.39,399.79,564.97,402.03,552.09z"/>
	<path class="st1" d="M314.37,459.39l-5.44,3.16l-3.15,30.69l31.46,28.19l30.16-6.48l17.87-40.39
		c-10.03-14.78-23.26-26.28-38.21-34.13l-26.2,15.21c1.9,5.22,4.34,10.93,7.41,17.2C328.27,472.82,321.99,467.6,314.37,459.39z"/>
	<path class="st1" d="M386.11,363.42c0.71-3.41,1.14-6.77,1.32-10.06c37.53,9.58,65.57,56.6,65.57,56.6
		c-6.9-59.1-61.87-87.01-80.6-94.87c12.91-0.64,23.22-14.05,23.22-30.51c0-16.87-10.83-30.54-24.18-30.54
		c-13.35,0-24.18,13.67-24.18,30.54c0,11.81,5.31,22.06,13.09,27.13c-39.34-8.88-52.85-62.4-56.43-81.33
		c-0.95-0.03-1.9-0.05-2.85-0.07c-11.13,47.35,15.69,87.49,31.52,106.18c-2.1,4.51-3.77,9.49-4.88,14.82
		c-1.27,6.14-1.67,12.15-1.31,17.78c-13.42,4.48-22.68,10.02-28.77,16.19c10.39,10.52,11.47,22.87,7.98,34.92
		c-1.73,5.99-4.58,11.9-7.98,17.48c5.02,8.24,11.22,15.75,16.73,21.69c7.62,8.21,13.9,13.43,13.9,13.43
		c-3.08-6.27-5.51-11.98-7.41-17.2c-5.59-15.35-6.46-26.33-4.68-34.19c5.06-22.31,31.47-19.38,31.47-19.38s72.3,69.13,80.29,158.07
		c1.17-1.09,2.32-2.2,3.46-3.32c2.89-38.47,1.13-117.53-51.7-175.52C382.53,376.02,384.75,369.98,386.11,363.42z"/>
	<path d="M297.64,385.29c-6.08-6.16-15.34-11.7-28.77-16.19c0.36-5.63-0.04-11.64-1.31-17.78c-1.1-5.33-2.78-10.32-4.88-14.82
		c15.83-18.69,42.65-58.83,31.52-106.18c-0.95,0.02-1.9,0.04-2.85,0.07c-3.58,18.93-17.09,72.45-56.43,81.33
		c7.77-5.08,13.09-15.32,13.09-27.13c0-16.87-10.83-30.54-24.18-30.54c-7.3,0-13.84,4.09-18.27,10.55
		c-1.65-2.98-4.47-5.24-7.78-6.09c-2.16-0.56-4.53-0.53-6.92,0.3c-6.87,2.37-11.76,8.41-15.25,15.66
		c-7.94,16.48-8.62,39.19-8.62,39.19c10.66-28.36,25.75-36.31,33.86-38.53c-0.77,2.98-1.19,6.16-1.19,9.47
		c0,16.46,10.31,29.88,23.22,30.51c-18.73,7.86-73.7,35.77-80.6,94.87c0,0,28.04-47.02,65.57-56.6c0.19,3.29,0.62,6.65,1.32,10.06
		c1.36,6.56,3.58,12.59,6.4,17.86c-52.83,57.98-54.6,137.05-51.7,175.52c1.14,1.12,2.29,2.23,3.46,3.32
		c7.99-88.94,80.29-158.07,80.29-158.07s26.41-2.93,31.47,19.38c1.18,5.19,1.2,11.74-0.53,20c-1.78,8.51-5.41,18.84-11.56,31.38
		c0,0,11.07-9.18,21.62-22.37c3.16-3.94,6.26-8.24,9.02-12.76c3.4-5.58,6.25-11.49,7.98-17.48
		C309.11,408.16,308.03,395.81,297.64,385.29z"/>
	<path class="st0" d="M297.64,158.18c57.05,0,110.97,17.89,156.5,51.82l14.1-19.91l6.89,4.89c18.32,13.01,34.94,28.33,49.4,45.54
		l5.43,6.46l-54.13,45.42l-5.42-6.45c-3.88-4.61-8.04-9.11-12.43-13.42l-13.79,13.79c32.61,35.47,52.55,82.76,52.55,134.62
		c0,45.64-15.44,87.73-41.37,121.35l15.35,12.88c5.21-4.96,10.13-10.18,14.66-15.58l5.42-6.45l54.13,45.42l-5.43,6.46
		c-14.47,17.21-31.09,32.53-49.4,45.54l-6.89,4.89l-12.21-17.25c-48.05,42.31-109.24,65.51-173.37,65.51
		c-64.14,0-125.33-23.19-173.38-65.5l-12.21,17.24l-6.89-4.89c-18.32-13.01-34.94-28.33-49.4-45.54l-5.43-6.46l54.13-45.42
		l5.42,6.45c4.54,5.4,9.45,10.62,14.66,15.58l15.35-12.88c-25.92-33.62-41.37-75.71-41.37-121.35c0-51.86,19.94-99.15,52.55-134.62
		l-13.79-13.79c-4.38,4.31-8.55,8.8-12.43,13.42l-5.42,6.45l-54.13-45.42l5.43-6.46c14.47-17.21,31.09-32.54,49.4-45.54l6.89-4.89
		l14.1,19.91C186.67,176.06,240.59,158.18,297.64,158.18 M297.64,150.74c-55.96,0-109.3,16.86-154.78,48.83l-9.75-13.78l-4.31-6.08
		l-6.08,4.31l-6.89,4.89c-18.83,13.37-35.91,29.12-50.79,46.82l-5.43,6.46l-4.79,5.7l5.7,4.79l54.13,45.42l5.69,4.78l4.78-5.69
		l5.42-6.45c2.17-2.58,4.44-5.13,6.79-7.63l3.51,3.51c-32.15,37.46-49.77,84.88-49.77,134.32c0,23.16,3.83,45.91,11.37,67.62
		c6.51,18.74,15.67,36.38,27.27,52.53l-4.79,4.02c-3.28-3.35-6.41-6.8-9.37-10.32l-5.42-6.45l-4.78-5.69l-5.7,4.78l-54.13,45.42
		l-5.7,4.79l4.79,5.7l5.43,6.46c14.87,17.7,31.96,33.45,50.79,46.82l6.89,4.89l6.08,4.32l4.31-6.08l7.5-10.59
		c23.04,19.09,48.79,34.09,76.66,44.62c30.48,11.52,62.56,17.36,95.36,17.36c32.8,0,64.88-5.84,95.35-17.37
		c27.87-10.54,53.62-25.54,76.66-44.63l7.5,10.6l4.31,6.08l6.08-4.31l6.89-4.89c18.83-13.37,35.92-29.12,50.79-46.82l5.43-6.46
		l4.79-5.7l-5.7-4.79l-54.13-45.42l-5.7-4.78l-4.78,5.69l-5.42,6.45c-2.95,3.51-6.09,6.97-9.37,10.32l-4.79-4.02
		c11.6-16.16,20.76-33.8,27.27-52.53c7.55-21.71,11.37-44.47,11.37-67.62c0-49.44-17.62-96.86-49.77-134.32l3.51-3.51
		c2.35,2.5,4.62,5.05,6.79,7.63l5.42,6.45l4.78,5.69l5.7-4.78l54.13-45.42l5.7-4.79l-4.79-5.7l-5.43-6.46
		c-14.87-17.69-31.96-33.45-50.79-46.82l-6.89-4.89l-6.08-4.31l-4.31,6.08l-9.75,13.78C406.94,167.59,353.6,150.74,297.64,150.74
		L297.64,150.74z"/>
</g>
</svg>
